<?xml version="1.0" standalone="no"?>
<!DOCTYPE svg PUBLIC "-//W3C//DTD SVG 20010904//EN"
 "http://www.w3.org/TR/2001/REC-SVG-20010904/DTD/svg10.dtd">
<svg version="1.0" xmlns="http://www.w3.org/2000/svg"
 width="720.000000pt" height="720.000000pt" viewBox="0 0 720.000000 720.000000"
 preserveAspectRatio="xMidYMid meet">
<metadata>
Created by potrace 1.14, written by Peter Selinger 2001-2017
</metadata>
<g transform="translate(0.000000,720.000000) scale(0.100000,-0.100000)"
fill="#000000" stroke="none">
<path d="M0 6947 l0 -252 92 -60 c50 -33 141 -93 201 -132 61 -40 112 -73 113
-73 4 0 256 -167 271 -180 7 -6 17 -10 23 -10 5 0 10 -4 10 -9 0 -5 14 -14 30
-21 17 -7 30 -16 30 -20 0 -4 8 -10 18 -14 17 -6 26 -12 192 -123 51 -35 97
-63 101 -63 5 0 9 -4 9 -10 0 -5 4 -10 9 -10 8 0 371 -237 399 -260 6 -6 12
-8 12 -5 0 3 10 -4 23 -15 12 -12 40 -31 62 -42 22 -11 69 -42 105 -68 36 -26
101 -69 145 -95 44 -27 91 -58 105 -70 14 -13 41 -31 60 -40 19 -10 53 -31 75
-47 64 -47 135 -94 197 -130 32 -18 58 -36 58 -40 0 -5 7 -8 15 -8 9 0 18 -7
21 -15 4 -8 11 -15 16 -15 10 0 22 -8 173 -112 44 -30 99 -65 122 -76 22 -12
48 -28 56 -36 8 -9 35 -28 60 -43 25 -15 90 -58 144 -94 54 -36 126 -83 161
-104 35 -20 86 -53 114 -71 53 -36 74 -42 81 -21 3 9 7 9 20 -2 20 -16 47 -8
47 13 0 25 34 37 68 25 22 -7 29 -15 25 -28 -8 -31 13 -33 68 -6 29 14 54 25
56 25 10 0 0 -36 -19 -69 l-21 -37 24 -28 c13 -15 36 -34 52 -42 35 -19 34
-39 -4 -54 -39 -17 -79 -75 -79 -117 0 -18 -4 -33 -10 -33 -5 0 -10 5 -10 10
0 6 -7 10 -15 10 -8 0 -15 4 -15 9 0 5 -13 14 -30 21 -37 15 -85 -1 -93 -32
-8 -28 -30 -17 -38 19 -9 44 -18 54 -47 52 -15 -1 -37 2 -49 6 l-22 7 22 29
c20 28 20 31 4 58 -15 25 -15 30 -2 41 11 9 12 17 5 30 -6 10 -10 28 -10 39 0
12 -14 28 -37 42 -49 30 -1345 876 -2751 1796 -238 156 -435 283 -437 283 -3
0 -5 -1492 -5 -3315 l0 -3315 1800 0 1799 0 20 44 c48 109 146 210 257 265 94
46 105 50 134 54 14 1 34 8 45 14 17 10 18 15 8 31 -12 20 -22 104 -28 222 -3
64 18 287 35 385 19 105 29 152 44 211 9 34 16 71 16 83 0 12 5 21 11 21 6 0
9 9 6 20 -3 10 1 24 8 30 7 6 19 31 26 55 7 25 17 45 22 45 4 0 17 -21 28 -47
15 -36 18 -57 12 -92 -8 -53 -8 -51 -16 -71 -22 -54 -59 -205 -91 -365 -24
-121 -41 -396 -27 -450 6 -25 9 -50 6 -55 -3 -5 -1 -11 5 -15 5 -3 10 3 10 14
0 11 4 23 10 26 6 3 10 15 10 26 0 45 119 245 244 410 108 142 224 270 367
404 81 76 186 195 229 260 19 28 41 58 50 67 23 25 143 79 153 69 5 -5 3 -25
-4 -48 -24 -69 -119 -247 -154 -288 -19 -22 -35 -43 -35 -47 0 -9 -150 -160
-202 -203 -20 -16 -71 -59 -115 -94 -172 -142 -271 -248 -384 -413 -32 -47
-59 -91 -59 -96 0 -6 -4 -12 -8 -14 -4 -2 -15 -19 -24 -38 -20 -41 -11 -56 37
-63 17 -2 47 -11 67 -20 21 -10 41 -17 45 -17 13 0 105 -68 149 -110 46 -43
103 -126 123 -177 l13 -33 250 0 250 0 -5 22 c-2 13 -11 57 -20 98 -14 70 -20
106 -47 272 -17 107 -24 460 -11 578 24 230 67 399 154 605 l33 80 38 -1 c42
-2 158 -45 196 -74 l25 -18 -21 -39 c-12 -21 -31 -56 -44 -78 -46 -79 -196
-381 -219 -440 -13 -33 -27 -69 -31 -80 -50 -118 -88 -315 -62 -315 4 0 14 21
21 48 33 115 91 277 138 382 66 146 178 377 225 463 20 38 20 38 47 21 14 -10
60 -47 101 -84 95 -85 143 -116 255 -167 93 -43 285 -103 326 -103 32 0 99 19
99 28 0 4 -30 22 -67 39 -57 26 -74 40 -103 85 -49 76 -97 191 -114 278 -16
79 -36 329 -35 440 1 36 2 175 3 310 l1 245 70 35 c39 20 141 72 228 118 87
45 171 82 186 82 31 0 99 -34 125 -64 167 -190 185 -267 186 -769 0 -249 -3
-318 -12 -315 -19 7 -55 78 -157 313 -5 11 -14 36 -21 55 -7 19 -16 44 -20 55
-15 37 -29 80 -44 133 -14 48 -14 52 2 52 18 0 52 -21 86 -52 26 -24 33 -15
12 17 -37 56 -77 85 -118 85 -80 0 -271 -113 -396 -234 -40 -38 -76 -73 -80
-76 -4 -3 -13 -16 -21 -30 -14 -24 -13 -24 5 -10 10 8 44 36 74 61 79 66 163
121 309 202 52 28 55 29 68 11 7 -10 13 -24 13 -32 0 -17 57 -190 70 -214 6
-10 10 -22 10 -28 0 -11 35 -89 88 -200 20 -41 80 -147 133 -235 114 -190 246
-414 318 -542 29 -51 54 -93 57 -93 2 0 4 1413 4 3140 l0 3140 -391 0 c-369 0
-391 -1 -384 -17 12 -30 26 -76 40 -133 17 -65 20 -376 5 -427 -6 -18 -15 -50
-21 -70 -36 -118 -101 -213 -231 -339 -124 -121 -316 -241 -438 -275 -25 -7
-49 -16 -53 -20 -5 -3 7 -28 27 -53 41 -54 76 -126 92 -191 10 -41 10 -298 0
-475 -10 -164 0 -423 16 -418 6 2 22 33 36 68 96 242 243 446 385 538 131 85
230 104 377 74 144 -30 251 -111 318 -239 52 -102 72 -194 72 -336 0 -216 -42
-359 -165 -565 -42 -70 -142 -199 -212 -273 -176 -184 -314 -243 -492 -209
-82 15 -192 67 -250 117 -45 38 -51 40 -51 14 0 -18 74 -91 92 -91 20 0 2 -69
-45 -170 -71 -151 -203 -309 -442 -529 -144 -133 -169 -155 -225 -201 -30 -25
-57 -47 -60 -50 -3 -3 -30 -25 -60 -50 -30 -25 -64 -53 -75 -63 -30 -27 -186
-131 -217 -145 -95 -41 -139 -52 -221 -52 -42 0 -79 4 -82 10 -3 6 -21 10 -39
10 -17 0 -36 4 -41 8 -6 4 -28 14 -50 21 -86 27 -151 59 -310 151 -148 87
-307 166 -420 210 -11 4 -58 26 -105 47 l-85 40 65 7 c153 16 299 50 371 86
l35 18 143 -118 c135 -112 146 -119 198 -126 59 -7 190 2 226 15 12 5 47 16
77 26 222 72 475 304 676 620 46 72 196 362 209 403 4 13 18 48 32 78 l25 55
19 -22 c11 -13 22 -33 25 -46 9 -33 24 -28 24 7 0 41 -35 111 -67 134 -40 30
-120 33 -174 7 -53 -25 -99 -64 -99 -86 0 -19 2 -19 42 3 18 10 45 22 60 25
14 4 33 10 42 13 31 12 15 -15 -51 -87 -209 -226 -416 -372 -693 -492 -77 -33
-152 -58 -267 -88 -18 -5 -48 -13 -66 -19 -18 -5 -46 -10 -61 -10 -15 0 -36
-5 -48 -11 -30 -16 -31 -7 -4 47 53 108 85 231 86 331 0 113 -31 105 -44 -12
-8 -73 -40 -179 -78 -263 -15 -34 -28 -65 -28 -68 0 -11 -100 -151 -132 -184
-64 -66 -144 -120 -179 -120 -10 0 -20 -4 -23 -9 -3 -5 -20 -12 -38 -15 -18
-4 -55 -11 -83 -17 -152 -32 -361 -19 -480 31 -68 28 -183 87 -195 100 -3 3
-21 17 -40 30 -19 13 -37 27 -40 30 -3 3 -30 26 -61 52 -156 131 -161 354 -11
489 81 73 191 120 315 134 l57 7 0 -28 c0 -58 35 -145 47 -116 2 6 10 12 17
12 16 0 76 50 76 64 0 21 64 55 95 51 75 -11 121 -32 160 -75 22 -24 77 -27
95 -5 10 13 11 24 1 56 -9 30 -9 44 -1 54 6 7 9 25 6 39 -3 14 1 32 9 39 7 8
15 27 16 43 4 34 34 64 64 64 11 0 26 5 31 10 6 6 35 13 65 16 30 4 63 12 75
19 11 7 31 15 44 17 25 3 41 28 18 28 -7 0 -24 9 -38 20 -14 11 -40 20 -57 20
-23 0 -33 5 -33 15 0 9 -15 24 -33 35 -76 45 -103 170 -52 244 14 20 25 41 25
46 0 6 4 10 8 10 5 0 35 26 68 58 32 32 76 69 97 81 l38 23 52 -36 c79 -54
134 -108 141 -138 5 -24 -1 -31 -60 -73 -45 -32 -62 -51 -55 -58 7 -7 24 -3
53 11 74 34 80 33 97 -21 15 -48 15 -50 -13 -100 -38 -69 -52 -84 -111 -123
-77 -52 -108 -81 -100 -93 7 -13 63 -6 80 10 5 5 16 9 25 9 8 0 28 7 44 15 15
8 35 15 43 15 22 0 123 52 123 63 0 10 16 -6 91 -95 l39 -46 -58 -69 c-54 -63
-92 -126 -92 -152 0 -27 30 -7 63 42 39 57 109 137 120 137 4 0 7 -6 7 -14 0
-8 10 -22 22 -31 22 -14 23 -14 31 9 5 14 17 28 27 31 11 3 22 15 25 26 4 10
11 19 16 19 6 0 8 4 4 9 -3 5 10 22 30 37 48 36 99 35 172 -6 39 -23 58 -28
63 -20 4 6 11 11 16 9 16 -4 34 45 34 94 0 104 58 147 199 149 78 1 88 3 84
18 -3 11 3 20 19 25 21 7 21 8 -10 12 -18 2 -30 9 -27 14 11 17 100 10 143
-11 24 -12 47 -18 52 -15 11 7 -20 45 -37 45 -7 0 -13 4 -13 8 0 5 -15 14 -33
21 -35 14 -37 16 -93 157 -20 49 -43 102 -51 118 -14 27 -14 29 18 55 52 44
17 84 -42 49 -23 -15 -15 -22 -97 93 -72 100 -200 211 -301 260 -99 48 -111
53 -166 70 -22 6 -50 15 -63 20 -13 5 -33 9 -45 9 -25 0 -158 41 -215 66 -63
28 -76 33 -102 39 -24 6 -24 5 7 -22 29 -26 86 -58 178 -99 22 -9 42 -19 44
-21 3 -2 -17 -34 -43 -73 l-47 -69 -42 42 c-23 23 -71 63 -107 88 -36 26 -173
133 -305 239 -132 106 -262 209 -290 230 -60 46 -185 145 -322 255 -55 44
-126 101 -159 127 -32 25 -138 110 -234 188 -96 78 -185 146 -198 151 -32 12
-25 51 35 189 25 58 57 119 74 141 l16 21 39 -24 c21 -14 64 -34 94 -46 90
-34 163 -60 205 -73 22 -6 48 -15 57 -20 10 -5 25 -9 33 -9 8 0 23 -4 33 -9
17 -9 152 -51 164 -51 4 0 30 46 58 101 64 129 90 173 162 282 l59 87 -1053 0
c-578 0 -1048 -4 -1042 -8 19 -18 274 -220 839 -667 319 -252 917 -729 1329
-1059 412 -331 767 -611 789 -624 31 -17 43 -19 48 -10 6 9 13 7 29 -7 22 -20
22 -20 43 7 26 31 42 35 79 20 19 -8 25 -16 21 -30 -2 -11 -1 -22 4 -25 10 -6
87 14 99 26 11 11 21 8 27 -7 3 -8 -9 -31 -28 -51 l-33 -38 21 -33 c25 -37 56
-55 107 -60 19 -2 46 -7 59 -10 20 -4 23 -2 18 15 -4 17 0 21 21 21 15 0 47
-7 72 -14 l45 -15 -35 -1 c-19 0 -66 -9 -105 -20 -38 -11 -91 -20 -116 -20
-47 0 -66 -13 -95 -63 -26 -43 -26 -48 -9 -67 10 -11 16 -23 12 -26 -3 -3 -13
6 -22 20 -10 14 -24 26 -33 26 -9 0 -28 12 -43 26 l-27 26 -37 -28 c-20 -15
-41 -39 -46 -52 -13 -34 -21 -21 -26 40 -4 58 -24 83 -52 69 -10 -6 -23 -5
-34 4 -22 16 -22 28 3 50 24 22 26 48 5 65 -14 11 -14 15 -1 29 13 14 13 22
-1 63 -12 37 -27 56 -74 93 -33 26 -56 51 -53 57 4 6 3 8 -2 5 -6 -3 -60 33
-120 81 -61 48 -227 179 -370 291 -1272 1003 -2333 1848 -2357 1878 l-18 23
-800 0 -799 0 0 -253z m2588 -824 c-8 -10 -5 -13 11 -13 11 0 26 -8 32 -18 8
-13 20 -17 37 -14 l25 5 -24 -34 c-13 -19 -31 -43 -40 -54 -9 -11 -30 -58 -47
-105 -44 -125 -52 -153 -52 -186 -1 -26 -2 -27 -12 -10 -14 25 -5 290 13 361
13 55 50 109 61 91 4 -6 2 -16 -4 -23z m547 -483 c26 -11 55 -20 65 -20 9 0
48 -24 86 -52 80 -61 69 -52 171 -146 43 -39 96 -82 118 -93 22 -12 72 -47
110 -78 39 -30 79 -63 89 -71 11 -8 35 -29 55 -45 20 -17 61 -49 91 -72 67
-51 95 -81 105 -110 5 -19 2 -23 -14 -23 -11 0 -22 -9 -26 -20 -3 -11 -15 -20
-25 -20 -10 0 -20 -3 -22 -7 -4 -11 -56 -46 -97 -68 -53 -27 -89 -35 -95 -22
-2 7 -5 4 -5 -5 -1 -25 -21 -23 -21 2 0 11 -4 20 -10 20 -5 0 -10 9 -10 19 0
28 -94 212 -152 299 -45 67 -83 112 -176 210 -20 21 -37 31 -42 26 -6 -6 5
-24 25 -46 33 -35 46 -68 26 -68 -14 0 -71 -63 -71 -77 0 -7 -3 -13 -7 -13 -5
0 -18 -35 -31 -78 -13 -42 -27 -91 -33 -108 -5 -17 -9 -43 -9 -58 0 -34 -8
-32 -145 36 -135 68 -164 84 -183 101 -9 8 -27 18 -39 21 -13 4 -23 14 -23 22
0 8 -4 14 -10 14 -20 0 -7 170 25 325 8 34 57 141 77 166 25 30 83 59 120 59
20 0 57 -9 83 -20z m1500 -251 c5 -5 17 -9 27 -9 10 0 26 -4 36 -9 9 -5 28
-13 42 -19 73 -29 100 -44 131 -71 23 -21 29 -31 18 -31 -9 0 -35 -24 -58 -53
-22 -30 -51 -59 -65 -66 -32 -17 -104 -7 -131 19 -12 11 -26 20 -32 20 -7 0
-18 6 -25 13 -7 6 -37 23 -65 36 -29 14 -53 30 -53 37 0 13 55 120 72 141 11
14 85 8 103 -8z m373 -216 c63 -63 142 -168 142 -189 0 -10 -57 -11 -67 -1 -3
4 -15 7 -25 7 -69 0 -129 81 -136 182 -3 47 -1 68 7 68 6 0 42 -30 79 -67z
m-1561 27 c3 -11 9 -20 14 -20 5 0 9 -7 9 -15 0 -8 5 -15 10 -15 6 0 10 -5 10
-11 0 -6 14 -30 30 -54 17 -24 30 -48 30 -54 0 -6 3 -11 8 -11 4 0 13 -15 20
-32 8 -18 18 -42 23 -53 17 -38 46 -135 42 -139 -7 -7 -53 16 -53 26 0 4 -6 7
-12 6 -24 -5 -56 83 -61 165 -2 43 -9 83 -15 89 -13 13 -32 2 -32 -18 0 -8 -6
-14 -14 -14 -10 0 -17 -16 -22 -45 -3 -25 -9 -45 -13 -45 -3 0 -12 -12 -18
-27 -15 -34 -71 -73 -102 -73 -21 0 -23 3 -18 43 20 166 87 317 140 317 10 0
21 -9 24 -20z m1804 -407 c32 -70 46 -118 33 -112 -17 9 -59 27 -90 40 -27 11
-31 16 -24 35 5 13 4 26 -2 32 -6 6 -6 12 3 17 8 6 10 4 4 -5 -5 -8 -4 -11 3
-6 6 4 9 13 6 20 -3 8 -1 17 5 20 5 4 8 19 5 34 -4 26 -4 26 12 7 9 -11 29
-48 45 -82z m-831 -158 c21 -34 17 -73 -5 -57 -18 13 -38 60 -32 76 9 22 13
20 37 -19z m-1689 -66 c11 -11 18 -27 15 -35 -10 -26 13 -53 60 -76 37 -17 43
-23 30 -30 -20 -11 -11 -28 15 -28 10 0 19 -4 19 -10 0 -5 5 -10 10 -10 6 0
28 -12 50 -26 38 -25 40 -29 40 -78 -1 -95 -14 -134 -61 -182 -23 -24 -41 -46
-38 -48 2 -2 21 2 42 9 47 16 51 -2 5 -28 l-31 -18 -24 28 c-70 83 -131 189
-174 302 -17 45 -17 178 0 219 7 17 15 32 17 32 2 0 13 -9 25 -21z m2512 -6
c-7 -2 -19 -2 -25 0 -7 3 -2 5 12 5 14 0 19 -2 13 -5z m-658 -140 c13 -10 29
-28 36 -40 14 -25 29 -21 29 7 0 24 15 34 37 22 14 -8 9 -18 -38 -66 -29 -31
-57 -56 -60 -56 -4 0 -31 32 -60 71 -42 57 -49 73 -38 80 19 13 64 4 94 -18z
m-842 -243 c-3 -11 -9 -20 -14 -20 -5 0 -9 9 -9 20 0 11 6 20 14 20 9 0 12 -7
9 -20z m-578 -49 c-10 -8 -124 -41 -141 -40 -9 0 14 11 71 35 35 14 83 18 70
5z m2195 -105 c0 -17 -151 -188 -290 -329 -91 -93 -167 -170 -169 -173 -2 -2
1 -4 7 -4 43 0 375 317 452 432 42 62 60 81 60 60 0 -9 -104 -216 -137 -272
-84 -143 -135 -216 -234 -334 -86 -103 -150 -160 -259 -232 -156 -104 -254
-137 -409 -138 l-108 -1 -89 75 c-49 41 -94 80 -100 85 -6 6 -25 21 -42 34
-18 13 -32 27 -32 31 0 4 26 33 58 66 31 33 68 73 83 90 18 23 37 33 70 39 24
3 58 11 74 15 17 5 71 19 120 31 203 48 368 114 535 212 50 29 144 90 150 96
3 3 30 25 60 48 30 23 84 71 120 107 57 58 80 76 80 62z m256 -848 c-17 -127
-27 -277 -32 -470 l-6 -207 -57 -43 c-31 -24 -58 -45 -61 -48 -3 -3 -41 -35
-85 -70 -44 -35 -114 -93 -155 -128 -41 -36 -88 -76 -105 -90 -277 -236 -406
-374 -539 -580 -66 -102 -186 -336 -186 -364 0 -8 -6 -21 -14 -27 -19 -16 -26
83 -21 269 8 264 64 454 190 650 65 100 170 213 253 271 41 30 42 31 43 92 1
34 2 88 4 120 l2 58 75 44 c93 54 476 368 632 516 33 33 63 59 65 59 2 0 0
-24 -3 -52z m-1404 -709 c9 -5 23 -9 31 -9 8 0 31 -7 51 -15 l37 -16 -40 -47
c-22 -26 -61 -83 -88 -127 -28 -45 -61 -94 -74 -110 -63 -75 -102 -114 -110
-109 -5 3 -7 22 -4 42 2 20 1 93 -4 161 -11 160 -1 208 49 234 36 18 113 16
152 -4z m-122 -858 c14 -10 24 -25 24 -34 -1 -13 -62 -103 -322 -474 -70 -100
-67 -99 -126 -50 l-30 24 85 99 c151 175 216 280 245 394 9 36 21 68 26 71 15
9 68 -7 98 -30z m350 -525 c0 -3 -4 -8 -10 -11 -5 -3 -10 -1 -10 4 0 6 5 11
10 11 6 0 10 -2 10 -4z m-970 -66 c0 -5 -2 -10 -4 -10 -3 0 -8 5 -11 10 -3 6
-1 10 4 10 6 0 11 -4 11 -10z"/>
<path d="M3510 5209 c0 -5 5 -7 10 -4 6 3 10 8 10 11 0 2 -4 4 -10 4 -5 0 -10
-5 -10 -11z"/>
<path d="M4697 6913 c-12 -11 -8 -23 9 -23 26 0 131 -78 198 -148 106 -110
200 -244 268 -382 18 -36 34 -67 36 -69 1 -3 7 0 13 6 20 20 -21 164 -80 283
-77 155 -187 255 -345 314 -72 27 -88 30 -99 19z"/>
<path d="M3837 6773 c-61 -128 -91 -272 -84 -399 15 -259 91 -417 248 -515 53
-33 138 -76 269 -137 36 -17 118 -55 184 -86 65 -31 120 -56 122 -56 13 0 572
-275 644 -316 25 -15 57 -35 72 -45 14 -11 30 -19 36 -19 5 0 16 -10 24 -22
41 -61 45 49 8 197 -55 219 -161 402 -348 596 -106 111 -256 239 -327 280 -78
44 -141 75 -200 99 -178 70 -295 148 -446 300 -64 64 -124 129 -134 143 -25
39 -42 33 -68 -20z"/>
<path d="M5124 6776 c-5 -14 41 -90 118 -191 21 -27 38 -56 38 -62 0 -21 17
-15 23 7 8 29 -55 145 -112 208 -52 56 -59 60 -67 38z"/>
<path d="M6525 5054 c-114 -27 -190 -66 -300 -152 -67 -52 -104 -91 -105 -108
0 -8 31 -11 104 -10 91 1 107 -1 126 -19 35 -32 50 -70 50 -128 0 -70 -18
-111 -79 -183 -28 -32 -48 -60 -46 -62 17 -18 119 69 152 130 22 41 25 177 4
225 -21 50 -73 84 -130 86 -53 2 -55 13 -12 49 103 87 230 138 341 138 42 0
80 -4 86 -8 21 -18 86 -34 96 -24 7 7 3 12 -11 17 -12 3 -21 11 -21 16 0 5 -8
9 -18 9 -10 0 -23 5 -29 11 -11 11 -174 21 -208 13z"/>
<path d="M4360 2870 c0 -19 76 -59 125 -65 59 -8 175 9 186 27 10 16 -12 30
-28 17 -18 -16 -176 -14 -212 2 -17 8 -31 17 -31 21 0 5 -9 8 -20 8 -11 0 -20
-4 -20 -10z"/>
<path d="M5647 1054 c-14 -14 -7 -32 24 -65 18 -19 55 -61 83 -94 28 -33 53
-62 56 -65 3 -3 17 -21 30 -40 14 -19 30 -42 37 -50 31 -39 83 -111 83 -114 0
-3 17 -31 38 -63 21 -32 57 -98 81 -148 24 -49 47 -98 52 -107 6 -12 -1 -25
-29 -50 -66 -60 -82 -86 -82 -138 0 -26 7 -64 15 -84 l15 -36 575 0 575 0 -2
307 -3 307 -50 17 c-286 94 -564 15 -907 -258 -70 -56 -78 -60 -78 -42 0 15
-74 169 -116 240 -38 65 -203 286 -261 351 -96 107 -129 139 -136 132z"/>
<path d="M4460 21 c0 -6 5 -13 10 -16 6 -3 10 1 10 9 0 9 -4 16 -10 16 -5 0
-10 -4 -10 -9z"/>
</g>
</svg>
