<svg xmlns="http://www.w3.org/2000/svg" xml:space="preserve" shape-rendering="geometricPrecision" text-rendering="geometricPrecision" image-rendering="optimizeQuality" fill-rule="evenodd" clip-rule="evenodd"
viewBox="0 0 1000 1000">
  <path fill="#000B1A" d="M681.413 353.008c2.19685,-0.0661418 4.65827,-0.133465 7.12087,-0.598819l240.3 0c3.06142,0.465355 6.18898,0.133465 9.2504,0.798426 0.731103,0.133465 1.53071,1.53071 1.19764,2.19567 -0.0661418,0.266929 -0.0661418,0.598819 -0.266929,0.865749 -1.46339,1.59685 -2.92796,3.25985 -4.39134,4.79174 -11.7791,11.8453 -23.5583,23.6232 -35.3362,35.5359 -2.59607,2.59488 -5.12481,5.38937 -7.65355,8.05158 -1.06417,1.13032 -2.12953,2.26299 -3.1937,3.32717 -6.7878,6.7878 -13.5095,13.6417 -20.2973,20.3634 -43.7209,43.7209 -87.4418,87.443 -131.163,131.231 -28.2166,28.2154 -56.3658,56.4308 -84.515,84.7135 -45.5174,45.5185 -90.9698,90.9698 -136.421,136.487 -12.9095,12.9106 -25.7528,25.8201 -38.6634,38.7296 -3.26103,3.26103 -6.58819,6.45473 -10.1811,9.45001 -10.3819,8.71772 -22.2272,14.374 -35.3362,17.5677 -6.32245,1.53189 -12.7772,2.19685 -19.2319,2.86181 -1.86378,0.199606 -3.72638,0.199606 -5.52284,0.0661418 -43.4552,-1.3311 -71.9375,-28.9477 -83.4497,-56.6977 -4.45866,-10.6476 -6.98741,-21.7606 -7.12087,-33.3402 -0.0661418,-2.4626 -0.0661418,-4.92402 -0.0661418,-7.45276 0,-128.968 0,-257.869 0.0661418,-386.77 0,-3.06142 0.0661418,-6.18898 0.199606,-9.2504 0.0661418,-1.39725 1.59685,-2.79449 3.06142,-2.86181 0.930709,-0.0661418 1.86378,-0.132284 2.72835,0l149.33 0.0011811c8.05158,-0.199606 16.1043,-0.199606 24.0898,-0.132284 1.19764,0 2.4626,0.265748 3.66024,0.465355 0.598819,0.0661418 1.66299,1.26496 1.79646,1.92992 0.133465,0.93189 0.399213,1.86378 0.399213,2.72835 0.0661418,3.39331 0.0661418,6.7878 0.0661418,10.1811l0 149.332c0,2.4626 -0.0661418,4.92402 0,7.45276 0.0661418,1.46457 -0.399213,3.06142 0.799607,4.3252 0.798426,0.799607 1.59685,0.333071 4.45866,-2.46142l5.25709 -5.25827 70.2071 -70.206c14.6398,-14.641 29.2807,-29.3469 43.8544,-43.9878 1.99606,-1.99606 3.79252,-4.05945 5.72245,-6.05552 1.53071,-1.59803 2.92796,-3.12874 4.52599,-4.65827l37.3985 -37.3996c2.32914,-2.32914 4.3252,-4.72559 7.32048,-6.32245l-0.0011811 0.0011811zm-598.72 92.5666l0 -302.388c-0.399213,-2.19567 -0.598819,-4.3252 -0.0673229,-6.45473 0.266929,-0.999213 1.53189,-2.26299 2.52874,-2.39646 0.999213,-0.0661418 1.86378,-0.199606 2.79567,-0.199606 1.86378,-0.0661418 5.52284,0 5.52284,0l159.247 0c2.72717,0 5.52284,0.0661418 8.31733,0.266929 1.39843,0.0661418 2.92914,1.59685 3.06142,2.9941 0.0661418,0.598819 0.199606,1.19882 0.199606,1.86378 0.0661418,1.53071 0.0661418,3.06142 0.0661418,4.65827l0 542.356c0,18.5669 -0.0661418,37.1339 0.0661418,55.6335 0.0673229,8.38465 -0.731103,16.637 -2.12953,24.8882 -1.8626,10.6476 -4.99016,21.0295 -9.64843,30.8776 -0.666142,1.39843 -1.3311,2.72835 -2.12953,4.12677 -11.3799,21.0284 -28.8815,34.2709 -51.9071,40.1941 -4.79055,1.26378 -9.64843,2.06339 -14.6398,2.32914 -5.85709,0.265748 -11.713,0.465355 -17.6351,0.0661418 -15.7713,-0.93189 -30.3449,-5.4567 -43.5886,-14.1083 -8.65158,-5.59016 -15.9047,-12.7772 -21.7606,-21.228 -6.92127,-9.98269 -11.6457,-21.0295 -14.5075,-32.8748 -2.32914,-9.58229 -3.92599,-19.3642 -4.12559,-29.3469 -0.0661418,-5.98937 -0.333071,-11.8453 -0.333071,-17.7012l0.0011811 -183.603c0,0 0.266929,-66.7465 0.266929,-99.9532l0.399213 0z"/>
</svg>
